<?xml version="1.0" encoding="utf-8"?>
<!-- Generator: Adobe Illustrator 21.1.0, SVG Export Plug-In . SVG Version: 6.00 Build 0)  -->
<svg version="1.1" id="Layer_2" xmlns="http://www.w3.org/2000/svg" xmlns:xlink="http://www.w3.org/1999/xlink" x="0px" y="0px"
	 width="48px" height="48px" viewBox="0 0 48 48" enable-background="new 0 0 48 48" xml:space="preserve">
<path fill="#FFFFFF" stroke="#FFFFFF" stroke-width="6" stroke-linecap="round" stroke-linejoin="round" d="M12,5h3c1.1,0,2,0.9,2,2
	v34c0,1.1-0.9,2-2,2h-3c-1.1,0-2-0.9-2-2V7C10,5.9,10.9,5,12,5z"/>
<path fill="#FFFFFF" stroke="#FFFFFF" stroke-width="6" stroke-linecap="round" stroke-linejoin="round" d="M33,5h3c1.1,0,2,0.9,2,2
	v34c0,1.1-0.9,2-2,2h-3c-1.1,0-2-0.9-2-2V7C31,5.9,31.9,5,33,5z"/>
</svg>
